<svg width="749" height="173" viewBox="0 0 749 173" fill="none" xmlns="http://www.w3.org/2000/svg">
<path d="M221.344 70.536C221.088 66.44 220.107 62.5573 218.4 58.888C216.693 55.2187 214.219 52.232 210.976 49.928C207.733 47.624 203.595 46.472 198.56 46.472C193.269 46.472 189.216 47.9653 186.4 50.952C183.584 53.9387 182.176 57.4373 182.176 61.448C182.176 65.032 183.2 68.0613 185.248 70.536C187.296 72.9253 189.941 75.0587 193.184 76.936C196.512 78.728 200.011 80.4773 203.68 82.184C206.923 83.6347 210.165 85.2133 213.408 86.92C216.651 88.5413 219.595 90.4187 222.24 92.552C224.885 94.6853 226.976 97.2453 228.512 100.232C230.133 103.133 230.944 106.632 230.944 110.728C230.944 115.421 229.749 119.603 227.36 123.272C225.056 126.941 221.685 129.843 217.248 131.976C212.811 134.024 207.392 135.048 200.992 135.048C197.152 135.048 193.184 134.493 189.088 133.384C184.992 132.275 181.365 130.653 178.208 128.52L178.848 134.024H172.192L171.424 106.76H176.416C176.843 114.269 179.445 119.987 184.224 123.912C189.003 127.752 194.763 129.672 201.504 129.672C204.832 129.672 207.904 129.075 210.72 127.88C213.536 126.6 215.755 124.765 217.376 122.376C219.083 119.987 219.936 117.085 219.936 113.672C219.936 109.832 218.912 106.632 216.864 104.072C214.816 101.512 212.171 99.2933 208.928 97.416C205.685 95.5387 202.229 93.7467 198.56 92.04C195.317 90.5893 192.117 89.0533 188.96 87.432C185.803 85.8107 182.901 83.976 180.256 81.928C177.696 79.7947 175.605 77.2773 173.984 74.376C172.448 71.4747 171.68 67.976 171.68 63.88C171.68 61.6613 172.064 59.272 172.832 56.712C173.6 54.152 174.923 51.72 176.8 49.416C178.763 47.0267 181.408 45.1067 184.736 43.656C188.149 42.12 192.459 41.352 197.664 41.352C200.907 41.352 204.533 41.8213 208.544 42.76C212.64 43.6133 216.437 45.32 219.936 47.88L219.424 42.376H225.952V70.536H221.344ZM329.937 70.408C329.852 65.3733 329.34 61.192 328.401 57.864C327.462 54.536 325.798 52.0613 323.409 50.44C321.105 48.7333 317.734 47.9227 313.297 48.008H302.417L302.289 117.768C302.289 120.072 302.246 122.077 302.161 123.784C302.161 125.405 302.076 126.771 301.905 127.88C303.697 127.795 305.446 127.709 307.153 127.624C308.945 127.539 310.737 127.453 312.529 127.368V133H282.449V128.776C285.692 128.605 287.868 127.837 288.977 126.472C290.172 125.107 290.812 123.272 290.897 120.968C291.068 118.579 291.153 115.933 291.153 113.032L291.281 48.136L278.097 48.264C272.721 48.264 268.924 50.056 266.705 53.64C264.486 57.224 263.377 62.8133 263.377 70.408H258.641L259.409 43.4H334.033L334.801 70.408H329.937ZM389.54 47.624C386.724 47.624 384.676 48.2213 383.396 49.416C382.201 50.6107 381.476 52.0187 381.22 53.64C380.964 55.176 380.836 56.5413 380.836 57.736V89.992C380.836 94.7707 381.135 99.4213 381.732 103.944C382.415 108.381 383.652 112.392 385.444 115.976C387.236 119.56 389.881 122.419 393.38 124.552C396.964 126.685 401.615 127.752 407.332 127.752C413.476 127.752 418.468 126.301 422.308 123.4C426.233 120.499 429.092 116.488 430.884 111.368C432.761 106.248 433.743 100.36 433.828 93.704L434.212 57.736C434.212 56.0293 434.255 54.408 434.34 52.872C434.425 51.2507 434.511 49.8 434.596 48.52C433.06 48.6053 431.524 48.6907 429.988 48.776C428.537 48.8613 427.044 48.9467 425.508 49.032V43.4H449.316V47.624C446.073 47.7093 443.812 48.4347 442.532 49.8C441.337 51.1653 440.655 53 440.484 55.304C440.399 57.608 440.356 60.296 440.356 63.368L440.1 93.064C440.1 98.6107 439.503 103.901 438.308 108.936C437.113 113.971 435.151 118.451 432.42 122.376C429.775 126.301 426.233 129.416 421.796 131.72C417.444 133.939 412.068 135.048 405.668 135.048C398.841 135.048 393.081 134.152 388.388 132.36C383.78 130.568 380.068 127.795 377.252 124.04C374.521 120.285 372.559 115.549 371.364 109.832C370.169 104.115 369.572 97.288 369.572 89.352V63.368C369.572 61.1493 369.615 58.5467 369.7 55.56C369.871 52.488 369.999 50.1413 370.084 48.52C368.548 48.6053 367.012 48.6907 365.476 48.776C363.94 48.776 362.404 48.8187 360.868 48.904V43.4H389.54V47.624ZM479.39 128.776C482.633 128.605 484.851 127.88 486.046 126.6C487.241 125.235 487.881 123.4 487.966 121.096C488.137 118.707 488.222 116.019 488.222 113.032V57.736C488.222 56.0293 488.265 54.408 488.35 52.872C488.435 51.2507 488.521 49.8 488.606 48.52C487.07 48.6053 485.534 48.6907 483.998 48.776C482.462 48.8613 480.926 48.9467 479.39 49.032V43.4L509.598 43.272C517.278 43.272 524.318 44.168 530.718 45.96C537.118 47.752 542.622 50.5253 547.23 54.28C551.923 57.9493 555.507 62.6427 557.982 68.36C560.542 73.992 561.822 80.648 561.822 88.328C561.822 94.216 560.798 99.848 558.75 105.224C556.702 110.6 553.63 115.379 549.534 119.56C545.438 123.656 540.318 126.941 534.174 129.416C528.115 131.805 521.075 133 513.054 133H479.39V128.776ZM499.358 117.896C499.358 120.2 499.315 122.163 499.23 123.784C499.23 125.405 499.145 126.771 498.974 127.88C501.278 127.965 503.369 128.051 505.246 128.136C507.209 128.136 508.83 128.136 510.11 128.136C511.475 128.136 512.329 128.136 512.67 128.136C518.217 128.136 523.209 127.112 527.646 125.064C532.169 123.016 536.009 120.2 539.166 116.616C542.409 112.947 544.883 108.68 546.59 103.816C548.382 98.8667 549.278 93.5333 549.278 87.816C549.278 79.7093 547.785 72.712 544.798 66.824C541.897 60.8507 537.417 56.2427 531.358 53C525.299 49.672 517.577 48.008 508.19 48.008C505.033 48.008 502.814 48.648 501.534 49.928C500.339 51.208 499.657 53 499.486 55.304C499.401 57.608 499.358 60.296 499.358 63.368V117.896ZM621.515 47.624C618.358 47.7093 616.139 48.4347 614.859 49.8C613.664 51.1653 612.982 53 612.811 55.304C612.726 57.608 612.683 60.296 612.683 63.368V117.768C612.683 120.072 612.64 122.077 612.555 123.784C612.555 125.405 612.47 126.771 612.299 127.88C613.835 127.795 615.371 127.709 616.907 127.624C618.443 127.539 619.979 127.453 621.515 127.368V133H592.715V128.776C595.958 128.605 598.176 127.88 599.371 126.6C600.566 125.235 601.206 123.4 601.291 121.096C601.462 118.707 601.547 116.019 601.547 113.032V57.736C601.547 56.0293 601.59 54.408 601.675 52.872C601.76 51.2507 601.846 49.8 601.931 48.52C600.395 48.6053 598.859 48.6907 597.323 48.776C595.787 48.8613 594.251 48.9467 592.715 49.032V43.4H621.515V47.624ZM698.081 135.048C689.974 135.048 683.02 133.683 677.217 130.952C671.414 128.221 666.678 124.595 663.009 120.072C659.425 115.464 656.78 110.387 655.073 104.84C653.366 99.2933 652.513 93.7467 652.513 88.2C652.513 82.824 653.409 77.4053 655.201 71.944C656.993 66.3973 659.724 61.32 663.393 56.712C667.148 52.104 671.798 48.392 677.345 45.576C682.977 42.76 689.548 41.352 697.057 41.352C704.908 41.352 711.692 42.76 717.409 45.576C723.126 48.392 727.82 52.1467 731.489 56.84C735.244 61.448 738.017 66.4827 739.809 71.944C741.686 77.4053 742.625 82.824 742.625 88.2C742.625 93.4907 741.729 98.9093 739.937 104.456C738.145 109.917 735.372 114.995 731.617 119.688C727.948 124.296 723.34 128.008 717.793 130.824C712.246 133.64 705.676 135.048 698.081 135.048ZM698.337 129.8C703.628 129.8 708.236 128.691 712.161 126.472C716.086 124.168 719.329 121.139 721.889 117.384C724.534 113.544 726.497 109.32 727.777 104.712C729.142 100.019 729.825 95.3253 729.825 90.632C729.825 85.3413 729.1 80.0933 727.649 74.888C726.198 69.6827 724.065 64.9467 721.249 60.68C718.433 56.4133 714.934 53 710.753 50.44C706.657 47.7947 701.964 46.472 696.673 46.472C691.382 46.472 686.732 47.624 682.721 49.928C678.796 52.232 675.51 55.304 672.865 59.144C670.305 62.8987 668.342 67.1227 666.977 71.816C665.697 76.424 665.057 81.1173 665.057 85.896C665.057 90.5893 665.697 95.496 666.977 100.616C668.342 105.736 670.39 110.515 673.121 114.952C675.852 119.389 679.308 122.973 683.489 125.704C687.67 128.435 692.62 129.8 698.337 129.8Z" fill="#D8B8A5"/>
<path d="M0 61C0 33.3858 22.3858 11 50 11H141V102C141 129.614 118.614 152 91 152H0V61Z" fill="#D8B8A5"/>
<path d="M84.84 43.624C81.6827 43.7093 79.464 44.4347 78.184 45.8C76.9893 47.1653 76.3067 49 76.136 51.304C76.0507 53.608 76.008 56.296 76.008 59.368V113.768C76.008 116.072 75.9653 118.077 75.88 119.784C75.88 121.405 75.7947 122.771 75.624 123.88C77.16 123.795 78.696 123.709 80.232 123.624C81.768 123.539 83.304 123.453 84.84 123.368V129H56.04V124.776C59.2827 124.605 61.5013 123.88 62.696 122.6C63.8907 121.235 64.5307 119.4 64.616 117.096C64.7867 114.707 64.872 112.019 64.872 109.032V53.736C64.872 52.0293 64.9147 50.408 65 48.872C65.0853 47.2507 65.1707 45.8 65.256 44.52C63.72 44.6053 62.184 44.6907 60.648 44.776C59.112 44.8613 57.576 44.9467 56.04 45.032V39.4H84.84V43.624Z" fill="#344B59"/>
</svg>
